<svg width="128" height="128" viewBox="0 0 128 128" fill="none" xmlns="http://www.w3.org/2000/svg">
<path d="M21.3333 37.3333H106.667M101.333 37.3333L96.7093 102.091C96.5178 104.782 95.3136 107.3 93.3393 109.139C91.365 110.978 88.7673 112 86.0693 112H41.9307C39.2327 112 36.635 110.978 34.6607 109.139C32.6864 107.3 31.4822 104.782 31.2907 102.091L26.6667 37.3333H101.333ZM53.3333 58.6667V90.6667V58.6667ZM74.6667 58.6667V90.6667V58.6667ZM80 37.3333V21.3333C80 19.9188 79.4381 18.5623 78.4379 17.5621C77.4377 16.5619 76.0812 16 74.6667 16H53.3333C51.9188 16 50.5623 16.5619 49.5621 17.5621C48.5619 18.5623 48 19.9188 48 21.3333V37.3333H80Z" stroke="#512BD4" stroke-width="10.6667" stroke-linecap="round" stroke-linejoin="round"/>
</svg>
